<mxfile host="app.diagrams.net" modified="2023-10-01T21:48:37.682Z" agent="Mozilla/5.0 (Windows NT 10.0; Win64; x64) AppleWebKit/537.36 (KHTML, like Gecko) Chrome/117.0.0.0 Safari/537.36" version="21.8.2" etag="2pn1LTQjfnqykPXSI5hk" type="device">
  <diagram id="Pl6PXGROlhjDuTrjTt2r" name="Страница — 1">
    <mxGraphModel dx="2257" dy="771" grid="1" gridSize="10" guides="1" tooltips="1" connect="1" arrows="1" fold="1" page="1" pageScale="1" pageWidth="827" pageHeight="1169" math="0" shadow="0">
      <root>
        <mxCell id="0" />
        <mxCell id="1" parent="0" />
        <mxCell id="-dLsaIZ4ZWtZbaKVqyiR-1" value="Товар" style="rounded=0;whiteSpace=wrap;html=1;" vertex="1" parent="1">
          <mxGeometry x="410" y="250" width="80" height="40" as="geometry" />
        </mxCell>
        <mxCell id="-dLsaIZ4ZWtZbaKVqyiR-6" value="" style="endArrow=none;html=1;rounded=0;exitX=1;exitY=0.5;exitDx=0;exitDy=0;" edge="1" parent="1" source="-dLsaIZ4ZWtZbaKVqyiR-11">
          <mxGeometry width="50" height="50" relative="1" as="geometry">
            <mxPoint x="290" y="350" as="sourcePoint" />
            <mxPoint x="410" y="350" as="targetPoint" />
          </mxGeometry>
        </mxCell>
        <mxCell id="-dLsaIZ4ZWtZbaKVqyiR-7" value="" style="endArrow=none;html=1;rounded=0;entryX=0.25;entryY=1;entryDx=0;entryDy=0;exitX=1;exitY=0.5;exitDx=0;exitDy=0;" edge="1" parent="1" target="-dLsaIZ4ZWtZbaKVqyiR-1">
          <mxGeometry width="50" height="50" relative="1" as="geometry">
            <mxPoint x="410" y="350" as="sourcePoint" />
            <mxPoint x="460" y="300" as="targetPoint" />
            <Array as="points">
              <mxPoint x="430" y="350" />
            </Array>
          </mxGeometry>
        </mxCell>
        <mxCell id="-dLsaIZ4ZWtZbaKVqyiR-8" value="" style="endArrow=none;html=1;rounded=0;entryX=0.75;entryY=1;entryDx=0;entryDy=0;" edge="1" parent="1" source="-dLsaIZ4ZWtZbaKVqyiR-10" target="-dLsaIZ4ZWtZbaKVqyiR-1">
          <mxGeometry width="50" height="50" relative="1" as="geometry">
            <mxPoint x="490" y="350" as="sourcePoint" />
            <mxPoint x="440" y="300" as="targetPoint" />
            <Array as="points">
              <mxPoint x="470" y="350" />
            </Array>
          </mxGeometry>
        </mxCell>
        <mxCell id="-dLsaIZ4ZWtZbaKVqyiR-10" value="включает" style="rhombus;whiteSpace=wrap;html=1;" vertex="1" parent="1">
          <mxGeometry x="580" y="330" width="80" height="40" as="geometry" />
        </mxCell>
        <mxCell id="-dLsaIZ4ZWtZbaKVqyiR-11" value="включает" style="rhombus;whiteSpace=wrap;html=1;" vertex="1" parent="1">
          <mxGeometry x="240" y="330" width="80" height="40" as="geometry" />
        </mxCell>
        <mxCell id="-dLsaIZ4ZWtZbaKVqyiR-12" value="Заказ" style="rounded=0;whiteSpace=wrap;html=1;" vertex="1" parent="1">
          <mxGeometry x="90" y="250" width="80" height="40" as="geometry" />
        </mxCell>
        <mxCell id="-dLsaIZ4ZWtZbaKVqyiR-13" value="Делает" style="rhombus;whiteSpace=wrap;html=1;" vertex="1" parent="1">
          <mxGeometry x="90" y="170" width="80" height="40" as="geometry" />
        </mxCell>
        <mxCell id="-dLsaIZ4ZWtZbaKVqyiR-14" value="Покупатель" style="rounded=0;whiteSpace=wrap;html=1;" vertex="1" parent="1">
          <mxGeometry x="90" y="90" width="80" height="40" as="geometry" />
        </mxCell>
        <mxCell id="-dLsaIZ4ZWtZbaKVqyiR-16" value="" style="endArrow=none;html=1;rounded=0;exitX=0;exitY=0.5;exitDx=0;exitDy=0;entryX=0.5;entryY=1;entryDx=0;entryDy=0;" edge="1" parent="1" source="-dLsaIZ4ZWtZbaKVqyiR-11" target="-dLsaIZ4ZWtZbaKVqyiR-12">
          <mxGeometry width="50" height="50" relative="1" as="geometry">
            <mxPoint x="440" y="250" as="sourcePoint" />
            <mxPoint x="490" y="200" as="targetPoint" />
            <Array as="points">
              <mxPoint x="130" y="350" />
            </Array>
          </mxGeometry>
        </mxCell>
        <mxCell id="-dLsaIZ4ZWtZbaKVqyiR-17" value="" style="endArrow=none;html=1;rounded=0;exitX=0.5;exitY=0;exitDx=0;exitDy=0;entryX=0.5;entryY=1;entryDx=0;entryDy=0;" edge="1" parent="1" source="-dLsaIZ4ZWtZbaKVqyiR-12" target="-dLsaIZ4ZWtZbaKVqyiR-13">
          <mxGeometry width="50" height="50" relative="1" as="geometry">
            <mxPoint x="190" y="240" as="sourcePoint" />
            <mxPoint x="240" y="190" as="targetPoint" />
          </mxGeometry>
        </mxCell>
        <mxCell id="-dLsaIZ4ZWtZbaKVqyiR-18" value="" style="endArrow=none;html=1;rounded=0;exitX=0.5;exitY=0;exitDx=0;exitDy=0;entryX=0.5;entryY=1;entryDx=0;entryDy=0;" edge="1" parent="1" source="-dLsaIZ4ZWtZbaKVqyiR-13" target="-dLsaIZ4ZWtZbaKVqyiR-14">
          <mxGeometry width="50" height="50" relative="1" as="geometry">
            <mxPoint x="440" y="250" as="sourcePoint" />
            <mxPoint x="490" y="200" as="targetPoint" />
          </mxGeometry>
        </mxCell>
        <mxCell id="-dLsaIZ4ZWtZbaKVqyiR-19" value="Поставка" style="rounded=0;whiteSpace=wrap;html=1;" vertex="1" parent="1">
          <mxGeometry x="730" y="250" width="80" height="40" as="geometry" />
        </mxCell>
        <mxCell id="-dLsaIZ4ZWtZbaKVqyiR-20" value="Делает" style="rhombus;whiteSpace=wrap;html=1;" vertex="1" parent="1">
          <mxGeometry x="730" y="170" width="80" height="40" as="geometry" />
        </mxCell>
        <mxCell id="-dLsaIZ4ZWtZbaKVqyiR-21" value="Поставщик" style="rounded=0;whiteSpace=wrap;html=1;" vertex="1" parent="1">
          <mxGeometry x="730" y="90" width="80" height="40" as="geometry" />
        </mxCell>
        <mxCell id="-dLsaIZ4ZWtZbaKVqyiR-22" value="" style="endArrow=none;html=1;rounded=0;exitX=0.5;exitY=0;exitDx=0;exitDy=0;entryX=0.5;entryY=1;entryDx=0;entryDy=0;" edge="1" parent="1" source="-dLsaIZ4ZWtZbaKVqyiR-19" target="-dLsaIZ4ZWtZbaKVqyiR-20">
          <mxGeometry width="50" height="50" relative="1" as="geometry">
            <mxPoint x="830" y="240" as="sourcePoint" />
            <mxPoint x="880" y="190" as="targetPoint" />
          </mxGeometry>
        </mxCell>
        <mxCell id="-dLsaIZ4ZWtZbaKVqyiR-23" value="" style="endArrow=none;html=1;rounded=0;exitX=0.5;exitY=0;exitDx=0;exitDy=0;entryX=0.5;entryY=1;entryDx=0;entryDy=0;" edge="1" parent="1" source="-dLsaIZ4ZWtZbaKVqyiR-20" target="-dLsaIZ4ZWtZbaKVqyiR-21">
          <mxGeometry width="50" height="50" relative="1" as="geometry">
            <mxPoint x="1080" y="250" as="sourcePoint" />
            <mxPoint x="1130" y="200" as="targetPoint" />
          </mxGeometry>
        </mxCell>
        <mxCell id="-dLsaIZ4ZWtZbaKVqyiR-24" value="" style="endArrow=none;html=1;rounded=0;exitX=1;exitY=0.5;exitDx=0;exitDy=0;entryX=0.5;entryY=1;entryDx=0;entryDy=0;" edge="1" parent="1" source="-dLsaIZ4ZWtZbaKVqyiR-10">
          <mxGeometry width="50" height="50" relative="1" as="geometry">
            <mxPoint x="769.71" y="330" as="sourcePoint" />
            <mxPoint x="769.71" y="290" as="targetPoint" />
            <Array as="points">
              <mxPoint x="770" y="350" />
            </Array>
          </mxGeometry>
        </mxCell>
        <mxCell id="-dLsaIZ4ZWtZbaKVqyiR-26" value="id товара" style="ellipse;whiteSpace=wrap;html=1;" vertex="1" parent="1">
          <mxGeometry x="287.5" y="160" width="75" height="40" as="geometry" />
        </mxCell>
        <mxCell id="-dLsaIZ4ZWtZbaKVqyiR-27" value="Имя&lt;br&gt;модели" style="ellipse;whiteSpace=wrap;html=1;" vertex="1" parent="1">
          <mxGeometry x="370" y="160" width="75" height="40" as="geometry" />
        </mxCell>
        <mxCell id="-dLsaIZ4ZWtZbaKVqyiR-28" value="Цена" style="ellipse;whiteSpace=wrap;html=1;" vertex="1" parent="1">
          <mxGeometry x="452.5" y="160" width="75" height="40" as="geometry" />
        </mxCell>
        <mxCell id="-dLsaIZ4ZWtZbaKVqyiR-29" value="" style="endArrow=none;html=1;rounded=0;exitX=0.5;exitY=0;exitDx=0;exitDy=0;entryX=0.5;entryY=1;entryDx=0;entryDy=0;" edge="1" parent="1" source="-dLsaIZ4ZWtZbaKVqyiR-1" target="-dLsaIZ4ZWtZbaKVqyiR-27">
          <mxGeometry width="50" height="50" relative="1" as="geometry">
            <mxPoint x="550" y="300" as="sourcePoint" />
            <mxPoint x="600" y="250" as="targetPoint" />
            <Array as="points">
              <mxPoint x="450" y="220" />
              <mxPoint x="408" y="220" />
            </Array>
          </mxGeometry>
        </mxCell>
        <mxCell id="-dLsaIZ4ZWtZbaKVqyiR-30" value="" style="endArrow=none;html=1;rounded=0;exitX=0.5;exitY=1;exitDx=0;exitDy=0;entryX=0.5;entryY=1;entryDx=0;entryDy=0;" edge="1" parent="1" source="-dLsaIZ4ZWtZbaKVqyiR-26" target="-dLsaIZ4ZWtZbaKVqyiR-28">
          <mxGeometry width="50" height="50" relative="1" as="geometry">
            <mxPoint x="550" y="300" as="sourcePoint" />
            <mxPoint x="600" y="250" as="targetPoint" />
            <Array as="points">
              <mxPoint x="325" y="220" />
              <mxPoint x="368" y="220" />
              <mxPoint x="450" y="220" />
              <mxPoint x="490" y="220" />
            </Array>
          </mxGeometry>
        </mxCell>
        <mxCell id="-dLsaIZ4ZWtZbaKVqyiR-33" value="0, N" style="text;html=1;strokeColor=none;fillColor=none;align=center;verticalAlign=middle;whiteSpace=wrap;rounded=0;" vertex="1" parent="1">
          <mxGeometry x="384" y="300" width="60" height="30" as="geometry" />
        </mxCell>
        <mxCell id="-dLsaIZ4ZWtZbaKVqyiR-34" value="0, N" style="text;html=1;strokeColor=none;fillColor=none;align=center;verticalAlign=middle;whiteSpace=wrap;rounded=0;" vertex="1" parent="1">
          <mxGeometry x="453" y="300" width="60" height="30" as="geometry" />
        </mxCell>
        <mxCell id="-dLsaIZ4ZWtZbaKVqyiR-47" value="0, N" style="text;html=1;strokeColor=none;fillColor=none;align=center;verticalAlign=middle;whiteSpace=wrap;rounded=0;" vertex="1" parent="1">
          <mxGeometry x="113" y="300" width="60" height="30" as="geometry" />
        </mxCell>
        <mxCell id="-dLsaIZ4ZWtZbaKVqyiR-48" value="0, N" style="text;html=1;strokeColor=none;fillColor=none;align=center;verticalAlign=middle;whiteSpace=wrap;rounded=0;" vertex="1" parent="1">
          <mxGeometry x="727" y="300" width="60" height="30" as="geometry" />
        </mxCell>
        <mxCell id="-dLsaIZ4ZWtZbaKVqyiR-49" value="0, N" style="text;html=1;strokeColor=none;fillColor=none;align=center;verticalAlign=middle;whiteSpace=wrap;rounded=0;" vertex="1" parent="1">
          <mxGeometry x="727" y="210" width="60" height="30" as="geometry" />
        </mxCell>
        <mxCell id="-dLsaIZ4ZWtZbaKVqyiR-50" value="0, N" style="text;html=1;strokeColor=none;fillColor=none;align=center;verticalAlign=middle;whiteSpace=wrap;rounded=0;" vertex="1" parent="1">
          <mxGeometry x="727" y="130" width="60" height="30" as="geometry" />
        </mxCell>
        <mxCell id="-dLsaIZ4ZWtZbaKVqyiR-51" value="0, N" style="text;html=1;strokeColor=none;fillColor=none;align=center;verticalAlign=middle;whiteSpace=wrap;rounded=0;" vertex="1" parent="1">
          <mxGeometry x="113" y="210" width="60" height="30" as="geometry" />
        </mxCell>
        <mxCell id="-dLsaIZ4ZWtZbaKVqyiR-52" value="0, N" style="text;html=1;strokeColor=none;fillColor=none;align=center;verticalAlign=middle;whiteSpace=wrap;rounded=0;" vertex="1" parent="1">
          <mxGeometry x="113" y="130" width="60" height="30" as="geometry" />
        </mxCell>
        <mxCell id="-dLsaIZ4ZWtZbaKVqyiR-53" value="id поставщика" style="ellipse;whiteSpace=wrap;html=1;" vertex="1" parent="1">
          <mxGeometry x="660" y="10" width="90" height="40" as="geometry" />
        </mxCell>
        <mxCell id="-dLsaIZ4ZWtZbaKVqyiR-54" value="Имя&lt;br&gt;поставщика" style="ellipse;whiteSpace=wrap;html=1;" vertex="1" parent="1">
          <mxGeometry x="790" y="10" width="90" height="40" as="geometry" />
        </mxCell>
        <mxCell id="-dLsaIZ4ZWtZbaKVqyiR-55" value="" style="endArrow=none;html=1;rounded=0;entryX=0.5;entryY=1;entryDx=0;entryDy=0;exitX=0.5;exitY=1;exitDx=0;exitDy=0;" edge="1" parent="1" source="-dLsaIZ4ZWtZbaKVqyiR-53" target="-dLsaIZ4ZWtZbaKVqyiR-54">
          <mxGeometry width="50" height="50" relative="1" as="geometry">
            <mxPoint x="780" y="150" as="sourcePoint" />
            <mxPoint x="830" y="100" as="targetPoint" />
            <Array as="points">
              <mxPoint x="705" y="70" />
              <mxPoint x="770" y="70" />
              <mxPoint x="835" y="70" />
            </Array>
          </mxGeometry>
        </mxCell>
        <mxCell id="-dLsaIZ4ZWtZbaKVqyiR-56" value="" style="endArrow=none;html=1;rounded=0;exitX=0.5;exitY=0;exitDx=0;exitDy=0;" edge="1" parent="1" source="-dLsaIZ4ZWtZbaKVqyiR-21">
          <mxGeometry width="50" height="50" relative="1" as="geometry">
            <mxPoint x="780" y="150" as="sourcePoint" />
            <mxPoint x="770" y="70" as="targetPoint" />
          </mxGeometry>
        </mxCell>
        <mxCell id="-dLsaIZ4ZWtZbaKVqyiR-57" value="id поставки" style="ellipse;whiteSpace=wrap;html=1;" vertex="1" parent="1">
          <mxGeometry x="850" y="220" width="75" height="40" as="geometry" />
        </mxCell>
        <mxCell id="-dLsaIZ4ZWtZbaKVqyiR-58" value="дата&lt;br&gt;поставки" style="ellipse;whiteSpace=wrap;html=1;" vertex="1" parent="1">
          <mxGeometry x="850" y="280" width="75" height="40" as="geometry" />
        </mxCell>
        <mxCell id="-dLsaIZ4ZWtZbaKVqyiR-59" value="" style="endArrow=none;html=1;rounded=0;exitX=1;exitY=0.5;exitDx=0;exitDy=0;entryX=0;entryY=0.5;entryDx=0;entryDy=0;" edge="1" parent="1" source="-dLsaIZ4ZWtZbaKVqyiR-19" target="-dLsaIZ4ZWtZbaKVqyiR-57">
          <mxGeometry width="50" height="50" relative="1" as="geometry">
            <mxPoint x="880" y="260" as="sourcePoint" />
            <mxPoint x="930" y="210" as="targetPoint" />
            <Array as="points">
              <mxPoint x="840" y="270" />
              <mxPoint x="840" y="240" />
            </Array>
          </mxGeometry>
        </mxCell>
        <mxCell id="-dLsaIZ4ZWtZbaKVqyiR-60" value="" style="endArrow=none;html=1;rounded=0;entryX=0;entryY=0.5;entryDx=0;entryDy=0;" edge="1" parent="1" target="-dLsaIZ4ZWtZbaKVqyiR-58">
          <mxGeometry width="50" height="50" relative="1" as="geometry">
            <mxPoint x="840" y="270" as="sourcePoint" />
            <mxPoint x="930" y="210" as="targetPoint" />
            <Array as="points">
              <mxPoint x="840" y="300" />
            </Array>
          </mxGeometry>
        </mxCell>
        <mxCell id="-dLsaIZ4ZWtZbaKVqyiR-61" value="id покупателя" style="ellipse;whiteSpace=wrap;html=1;" vertex="1" parent="1">
          <mxGeometry x="20" y="10" width="90" height="40" as="geometry" />
        </mxCell>
        <mxCell id="-dLsaIZ4ZWtZbaKVqyiR-62" value="Имя&lt;br&gt;покупателя" style="ellipse;whiteSpace=wrap;html=1;" vertex="1" parent="1">
          <mxGeometry x="150" y="10" width="90" height="40" as="geometry" />
        </mxCell>
        <mxCell id="-dLsaIZ4ZWtZbaKVqyiR-63" value="" style="endArrow=none;html=1;rounded=0;entryX=0.5;entryY=1;entryDx=0;entryDy=0;exitX=0.5;exitY=1;exitDx=0;exitDy=0;" edge="1" parent="1" source="-dLsaIZ4ZWtZbaKVqyiR-61" target="-dLsaIZ4ZWtZbaKVqyiR-62">
          <mxGeometry width="50" height="50" relative="1" as="geometry">
            <mxPoint x="140" y="150" as="sourcePoint" />
            <mxPoint x="190" y="100" as="targetPoint" />
            <Array as="points">
              <mxPoint x="65" y="70" />
              <mxPoint x="130" y="70" />
              <mxPoint x="195" y="70" />
            </Array>
          </mxGeometry>
        </mxCell>
        <mxCell id="-dLsaIZ4ZWtZbaKVqyiR-64" value="" style="endArrow=none;html=1;rounded=0;exitX=0.5;exitY=0;exitDx=0;exitDy=0;" edge="1" parent="1">
          <mxGeometry width="50" height="50" relative="1" as="geometry">
            <mxPoint x="130" y="90" as="sourcePoint" />
            <mxPoint x="130" y="70" as="targetPoint" />
          </mxGeometry>
        </mxCell>
        <mxCell id="-dLsaIZ4ZWtZbaKVqyiR-65" value="id заказа" style="ellipse;whiteSpace=wrap;html=1;" vertex="1" parent="1">
          <mxGeometry x="-20" y="220" width="75" height="40" as="geometry" />
        </mxCell>
        <mxCell id="-dLsaIZ4ZWtZbaKVqyiR-66" value="дата&lt;br&gt;заказа" style="ellipse;whiteSpace=wrap;html=1;" vertex="1" parent="1">
          <mxGeometry x="-20" y="280" width="75" height="40" as="geometry" />
        </mxCell>
        <mxCell id="-dLsaIZ4ZWtZbaKVqyiR-67" value="" style="endArrow=none;html=1;rounded=0;exitX=1;exitY=0.5;exitDx=0;exitDy=0;entryX=1;entryY=0.5;entryDx=0;entryDy=0;" edge="1" parent="1" source="-dLsaIZ4ZWtZbaKVqyiR-66" target="-dLsaIZ4ZWtZbaKVqyiR-65">
          <mxGeometry width="50" height="50" relative="1" as="geometry">
            <mxPoint x="270" y="280" as="sourcePoint" />
            <mxPoint x="320" y="230" as="targetPoint" />
            <Array as="points">
              <mxPoint x="60" y="300" />
              <mxPoint x="60" y="270" />
              <mxPoint x="60" y="240" />
            </Array>
          </mxGeometry>
        </mxCell>
        <mxCell id="-dLsaIZ4ZWtZbaKVqyiR-68" value="" style="endArrow=none;html=1;rounded=0;entryX=0;entryY=0.5;entryDx=0;entryDy=0;" edge="1" parent="1" target="-dLsaIZ4ZWtZbaKVqyiR-12">
          <mxGeometry width="50" height="50" relative="1" as="geometry">
            <mxPoint x="60" y="270" as="sourcePoint" />
            <mxPoint x="200" y="210" as="targetPoint" />
          </mxGeometry>
        </mxCell>
        <mxCell id="-dLsaIZ4ZWtZbaKVqyiR-69" value="Сотрудник" style="rounded=0;whiteSpace=wrap;html=1;" vertex="1" parent="1">
          <mxGeometry x="410" y="450" width="80" height="40" as="geometry" />
        </mxCell>
        <mxCell id="-dLsaIZ4ZWtZbaKVqyiR-70" value="имеет&lt;br&gt;доступ" style="rhombus;whiteSpace=wrap;html=1;" vertex="1" parent="1">
          <mxGeometry x="746" y="445" width="90" height="50" as="geometry" />
        </mxCell>
        <mxCell id="-dLsaIZ4ZWtZbaKVqyiR-71" value="имеет&lt;br&gt;доступ" style="rhombus;whiteSpace=wrap;html=1;" vertex="1" parent="1">
          <mxGeometry x="63" y="445" width="90" height="50" as="geometry" />
        </mxCell>
        <mxCell id="-dLsaIZ4ZWtZbaKVqyiR-76" value="" style="endArrow=none;html=1;rounded=0;exitX=1;exitY=0.5;exitDx=0;exitDy=0;entryX=0;entryY=0.5;entryDx=0;entryDy=0;" edge="1" parent="1" source="-dLsaIZ4ZWtZbaKVqyiR-69" target="-dLsaIZ4ZWtZbaKVqyiR-70">
          <mxGeometry width="50" height="50" relative="1" as="geometry">
            <mxPoint x="530" y="360" as="sourcePoint" />
            <mxPoint x="580" y="310" as="targetPoint" />
          </mxGeometry>
        </mxCell>
        <mxCell id="-dLsaIZ4ZWtZbaKVqyiR-77" value="" style="endArrow=none;html=1;rounded=0;exitX=1;exitY=0.5;exitDx=0;exitDy=0;entryX=0;entryY=0.5;entryDx=0;entryDy=0;" edge="1" parent="1">
          <mxGeometry width="50" height="50" relative="1" as="geometry">
            <mxPoint x="150" y="469.71" as="sourcePoint" />
            <mxPoint x="410" y="469.71" as="targetPoint" />
          </mxGeometry>
        </mxCell>
        <mxCell id="-dLsaIZ4ZWtZbaKVqyiR-78" value="" style="endArrow=none;html=1;rounded=0;exitX=0.5;exitY=0;exitDx=0;exitDy=0;entryX=0.25;entryY=1;entryDx=0;entryDy=0;" edge="1" parent="1" source="-dLsaIZ4ZWtZbaKVqyiR-71" target="-dLsaIZ4ZWtZbaKVqyiR-12">
          <mxGeometry width="50" height="50" relative="1" as="geometry">
            <mxPoint x="530" y="360" as="sourcePoint" />
            <mxPoint x="580" y="310" as="targetPoint" />
          </mxGeometry>
        </mxCell>
        <mxCell id="-dLsaIZ4ZWtZbaKVqyiR-79" value="" style="endArrow=none;html=1;rounded=0;exitX=0.5;exitY=0;exitDx=0;exitDy=0;entryX=0.75;entryY=1;entryDx=0;entryDy=0;" edge="1" parent="1" source="-dLsaIZ4ZWtZbaKVqyiR-70" target="-dLsaIZ4ZWtZbaKVqyiR-19">
          <mxGeometry width="50" height="50" relative="1" as="geometry">
            <mxPoint x="530" y="360" as="sourcePoint" />
            <mxPoint x="580" y="310" as="targetPoint" />
          </mxGeometry>
        </mxCell>
        <mxCell id="-dLsaIZ4ZWtZbaKVqyiR-80" value="0, N" style="text;html=1;strokeColor=none;fillColor=none;align=center;verticalAlign=middle;whiteSpace=wrap;rounded=0;" vertex="1" parent="1">
          <mxGeometry x="360" y="445" width="60" height="30" as="geometry" />
        </mxCell>
        <mxCell id="-dLsaIZ4ZWtZbaKVqyiR-81" value="0, N" style="text;html=1;strokeColor=none;fillColor=none;align=center;verticalAlign=middle;whiteSpace=wrap;rounded=0;" vertex="1" parent="1">
          <mxGeometry x="480" y="445" width="60" height="30" as="geometry" />
        </mxCell>
        <mxCell id="-dLsaIZ4ZWtZbaKVqyiR-82" value="0, N" style="text;html=1;strokeColor=none;fillColor=none;align=center;verticalAlign=middle;whiteSpace=wrap;rounded=0;" vertex="1" parent="1">
          <mxGeometry x="63" y="360" width="60" height="30" as="geometry" />
        </mxCell>
        <mxCell id="-dLsaIZ4ZWtZbaKVqyiR-83" value="0, N" style="text;html=1;strokeColor=none;fillColor=none;align=center;verticalAlign=middle;whiteSpace=wrap;rounded=0;" vertex="1" parent="1">
          <mxGeometry x="776" y="360" width="60" height="30" as="geometry" />
        </mxCell>
        <mxCell id="-dLsaIZ4ZWtZbaKVqyiR-84" value="Количество" style="ellipse;whiteSpace=wrap;html=1;" vertex="1" parent="1">
          <mxGeometry x="537.5" y="160" width="75" height="40" as="geometry" />
        </mxCell>
        <mxCell id="-dLsaIZ4ZWtZbaKVqyiR-85" value="" style="endArrow=none;html=1;rounded=0;entryX=0.5;entryY=1;entryDx=0;entryDy=0;" edge="1" parent="1" target="-dLsaIZ4ZWtZbaKVqyiR-84">
          <mxGeometry width="50" height="50" relative="1" as="geometry">
            <mxPoint x="490" y="220" as="sourcePoint" />
            <mxPoint x="550" y="250" as="targetPoint" />
            <Array as="points">
              <mxPoint x="575" y="220" />
            </Array>
          </mxGeometry>
        </mxCell>
        <mxCell id="-dLsaIZ4ZWtZbaKVqyiR-86" value="Нотация Чена" style="text;strokeColor=none;fillColor=none;align=left;verticalAlign=middle;spacingLeft=4;spacingRight=4;overflow=hidden;points=[[0,0.5],[1,0.5]];portConstraint=eastwest;rotatable=0;whiteSpace=wrap;html=1;" vertex="1" parent="1">
          <mxGeometry x="400" y="520" width="100" height="30" as="geometry" />
        </mxCell>
      </root>
    </mxGraphModel>
  </diagram>
</mxfile>
